<?xml version="1.0" standalone="no"?>
<!DOCTYPE svg PUBLIC "-//W3C//DTD SVG 20010904//EN"
 "http://www.w3.org/TR/2001/REC-SVG-20010904/DTD/svg10.dtd">
<svg version="1.0" xmlns="http://www.w3.org/2000/svg"
 width="512.000000pt" height="512.000000pt" viewBox="0 0 512.000000 512.000000"
 preserveAspectRatio="xMidYMid meet">

<g transform="translate(0.000000,512.000000) scale(0.100000,-0.100000)"
fill="#000000" stroke="none">
<path d="M364 5108 c-12 -5 -27 -21 -33 -34 -15 -35 -15 -993 0 -1027 6 -14
22 -30 36 -36 34 -16 2272 -16 2306 0 14 6 30 22 36 36 15 34 15 992 0 1026
-6 14 -22 30 -36 36 -33 15 -2278 14 -2309 -1z m2196 -548 l0 -400 -1040 0
-1040 0 0 400 0 400 1040 0 1040 0 0 -400z"/>
<path d="M1120 4560 l0 -80 80 0 80 0 0 80 0 80 -80 0 -80 0 0 -80z"/>
<path d="M1440 4560 l0 -80 80 0 80 0 0 80 0 80 -80 0 -80 0 0 -80z"/>
<path d="M1760 4560 l0 -80 80 0 80 0 0 80 0 80 -80 0 -80 0 0 -80z"/>
<path d="M2880 5042 l0 -79 104 -6 c218 -14 424 -69 621 -167 156 -78 286
-171 410 -295 213 -214 370 -502 429 -787 20 -99 36 -230 36 -300 0 -52 22
-114 220 -608 121 -303 220 -552 220 -555 0 -3 -83 -5 -185 -5 -196 0 -225 -6
-244 -47 -7 -16 -11 -152 -11 -422 0 -371 -1 -403 -20 -462 -38 -120 -129
-211 -249 -249 -59 -19 -91 -20 -457 -20 l-394 0 0 -80 0 -80 80 0 80 0 0
-440 0 -440 80 0 80 0 0 439 0 439 253 4 c228 4 258 7 311 26 173 64 305 195
367 363 22 62 23 76 27 437 l3 372 204 0 c223 0 246 5 266 52 11 28 -3 68
-229 636 -227 571 -242 612 -247 687 -33 457 -213 848 -537 1161 -105 102
-161 147 -271 219 -175 113 -410 210 -607 249 -83 16 -249 36 -305 36 l-35 0
0 -78z"/>
<path d="M1440 3680 l0 -160 -525 0 c-363 0 -532 -3 -548 -11 -42 -19 -47 -47
-47 -264 l0 -205 80 0 80 0 0 160 0 160 480 0 480 0 0 -160 0 -160 80 0 80 0
0 160 0 160 480 0 480 0 0 -160 0 -160 80 0 80 0 0 205 c0 217 -5 245 -47 264
-16 8 -185 11 -548 11 l-525 0 0 160 0 160 -80 0 -80 0 0 -160z"/>
<path d="M316 2870 c-115 -29 -225 -122 -279 -238 -28 -59 -32 -77 -32 -152 0
-75 4 -93 32 -152 44 -94 109 -160 202 -206 69 -34 82 -37 161 -37 79 0 92 3
161 37 93 46 158 112 202 206 28 59 32 77 32 152 0 75 -4 93 -32 152 -66 140
-197 234 -338 243 -39 2 -87 0 -109 -5z m169 -161 c53 -15 129 -91 144 -144
28 -101 8 -191 -58 -256 -65 -66 -155 -86 -256 -58 -53 15 -129 91 -144 144
-14 51 -14 119 0 169 14 50 83 123 134 141 49 17 126 19 180 4z"/>
<path d="M1436 2870 c-115 -29 -225 -122 -279 -238 -28 -59 -32 -77 -32 -152
0 -75 4 -93 32 -152 44 -94 109 -160 202 -206 69 -34 82 -37 161 -37 79 0 92
3 161 37 93 46 158 112 202 206 28 59 32 77 32 152 0 75 -4 93 -32 152 -66
140 -197 234 -338 243 -39 2 -87 0 -109 -5z m169 -161 c25 -7 58 -29 86 -58
50 -50 69 -96 69 -171 0 -75 -19 -121 -69 -171 -94 -95 -248 -95 -342 0 -65
65 -86 155 -58 255 14 50 83 123 134 141 49 17 126 19 180 4z"/>
<path d="M2556 2870 c-115 -29 -225 -122 -279 -238 -28 -59 -32 -77 -32 -152
0 -75 4 -93 32 -152 44 -94 109 -160 202 -206 69 -34 82 -37 161 -37 79 0 92
3 161 37 93 46 158 112 202 206 28 59 32 77 32 152 0 75 -4 93 -32 152 -66
140 -197 234 -338 243 -39 2 -87 0 -109 -5z m169 -161 c25 -7 58 -29 86 -58
50 -50 69 -96 69 -171 0 -75 -19 -121 -69 -171 -94 -95 -248 -95 -342 0 -65
65 -86 155 -58 255 14 50 83 123 134 141 49 17 126 19 180 4z"/>
<path d="M1623 1846 c-28 -12 -54 -24 -57 -27 -4 -3 19 -74 49 -158 31 -83 69
-202 85 -264 56 -220 60 -274 60 -861 l0 -536 80 0 80 0 0 509 c0 521 -6 641
-41 810 -42 203 -161 552 -189 550 -8 0 -38 -11 -67 -23z"/>
</g>
</svg>
